<?xml version="1.0" encoding="UTF-8"?>
<!-- Generated by Pixelmator Pro 3.6.14 -->
<svg width="3024" height="1964" viewBox="0 0 3024 1964" xmlns="http://www.w3.org/2000/svg">
    <path id="Splatter-5" fill="#000000" stroke="none" d="M 3427 55 C 3575.77002 211.274414 3513 634.604858 3513 828.96521 C 3513 1049.240112 3068.605713 961.99707 2880.744141 1052.459717 C 2724.856201 1127.269653 2720.511719 1376 2333 1376 C 2006.674561 1376 1820.96228 1024.351196 1592 907 C 1262.292725 738.012695 950.297119 964.554626 739 783 C 405.539795 496.477905 1137.246094 204.062744 1255 191 C 1475.200073 166.600586 1161.963623 -198.342773 1302 -288 C 1469.934204 -395.553711 2248.488281 -23 2452.441895 -23 C 2625.80249 -23 3024 -220.400146 3024 -105 C 3024 50.488159 3334.965576 -41.675659 3427 55 Z"/>
    <path id="Splatter-2" fill="#000000" stroke="none" d="M -186.000015 772 C -422.022095 765.703491 -510.242371 811.473755 -579.135315 640.685669 C -741.525757 238.113892 -527.957458 -216.823975 46.073807 -448.378174 C 823.559143 -762.002197 1226.656128 -286.317139 1327.535034 -36.234741 C 1497.306885 384.635864 1345.181152 718.895264 1040 842 C 829.279724 927.000854 603.368774 665.822632 404.999969 664 C 155.538239 661.708496 52.111378 778.352295 -186.000015 772 Z"/>
</svg>
